# File created by Blade
# Date/Time:  Tue Apr 07 20:29:34 2015
# Frame Rate: 120.000 fps
#------------------------------------------------------
:FULLY-SPECIFIED
:DEGREES
2066
root 3.879240 33.180654 -3.915343 -2.070286 -21.110149 -24.502796
Spine 10.834766 -3.025681 16.833355
Head 11.596404 -20.310967 6.811152
LeftShoulder -19.540686 43.733738 14.281251
LeftArm 47.410237 -24.187567 -77.422103
LeftForeArm 1.594404 -0.000000 10.259576
LeftHand 9.616891 -0.000000 -0.393138
LeftHandThumb1 -26.253704 0.000000 33.147579
RightShoulder -5.945527 -4.535006 -9.769153
RightArm 12.787333 -4.836652 68.550352
RightForeArm 14.237177 0.000000 30.309138
RightHand 10.521979 -0.000000 8.100633
RightHandThumb1 -24.326973 -0.000000 -32.862282
LeftUpLeg 3.899551 8.000226 16.237986
LeftLeg 18.466188 -0.000000 -0.000000
LeftFoot -16.583930 25.367622 -7.819533
LeftToeBase -11.501484 -0.000000 0.000000
RightUpLeg -108.890812 -29.331847 14.555847
RightLeg 68.174634 -0.000000 -0.000000
RightFoot 41.731964 -22.086527 2.917387
RightToeBase 35.187757 -0.000000 -0.000000
2067
root 3.875222 33.164486 -3.926588 -2.140331 -21.237815 -24.380812
Spine 10.885723 -2.935318 16.647596
Head 11.596158 -20.276172 6.885199
LeftShoulder -19.650513 43.751940 14.167486
LeftArm 47.250789 -24.091788 -77.358085
LeftForeArm 1.770770 -0.000000 10.111743
LeftHand 9.508433 -0.000000 -0.692312
LeftHandThumb1 -26.253704 0.000000 33.147579
RightShoulder -5.985989 -4.659098 -9.802648
RightArm 12.628415 -4.884224 68.763391
RightForeArm 14.132233 -0.000000 30.311785
RightHand 10.461312 -0.000000 8.259049
RightHandThumb1 -24.326973 -0.000000 -32.862282
LeftUpLeg 3.897132 7.929479 16.071121
LeftLeg 18.567577 -0.000000 -0.000000
LeftFoot -16.649081 25.662785 -7.604348
LeftToeBase -11.390022 -0.000000 0.000000
RightUpLeg -108.972280 -29.061413 14.854439
RightLeg 67.380884 -0.000000 -0.000000
RightFoot 41.737802 -22.117190 2.811584
RightToeBase 35.104454 -0.000000 -0.000000
2068
root 3.872818 33.144821 -3.937869 -2.230166 -21.357920 -24.211850
Spine 10.943749 -2.858970 16.411061
Head 11.568279 -20.216154 6.964606
LeftShoulder -19.829842 43.838654 14.001897
LeftArm 47.170540 -23.984633 -77.280666
LeftForeArm 1.948566 -0.000000 9.937355
LeftHand 9.473573 -0.000000 -0.909237
LeftHandThumb1 -26.253704 0.000000 33.147579
RightShoulder -6.022905 -4.783039 -9.824046
RightArm 12.475666 -4.942799 68.966109
RightForeArm 14.032062 -0.000000 30.324805
RightHand 10.376070 -0.000000 8.334396
RightHandThumb1 -24.326973 -0.000000 -32.862282
LeftUpLeg 3.883950 7.815940 15.849766
LeftLeg 18.687808 -0.000000 -0.000000
LeftFoot -16.734877 25.978399 -7.455792
LeftToeBase -11.367482 -0.000000 0.000000
RightUpLeg -109.088017 -28.800635 15.148187
RightLeg 66.647782 -0.000000 -0.000000
RightFoot 41.726444 -22.009248 2.822758
RightToeBase 35.342961 -0.000000 -0.000000
2069
root 3.873117 33.122792 -3.946939 -2.340026 -21.475267 -24.021692
Spine 11.018308 -2.804762 16.166499
Head 11.513714 -20.145878 7.016575
LeftShoulder -19.976859 43.930735 13.829765
LeftArm 47.045788 -23.960233 -77.228938
LeftForeArm 2.160858 -0.000000 9.796001
LeftHand 9.381991 -0.000000 -1.167536
LeftHandThumb1 -26.253704 0.000000 33.147579
RightShoulder -6.058563 -4.878922 -9.867547
RightArm 12.312785 -5.048766 69.156897
RightForeArm 13.893190 -0.000000 30.318444
RightHand 10.281712 -0.000000 8.529061
RightHandThumb1 -24.326973 -0.000000 -32.862282
LeftUpLeg 3.868238 7.713548 15.608195
LeftLeg 18.838635 -0.000000 -0.000000
LeftFoot -16.834472 26.294268 -7.294181
LeftToeBase -11.302151 -0.000000 0.000000
RightUpLeg -109.234583 -28.556762 15.487861
RightLeg 65.957492 -0.000000 -0.000000
RightFoot 41.775481 -21.762391 2.811335
RightToeBase 35.142387 -0.000000 -0.000000
2070
root 3.875350 33.098735 -3.956472 -2.453653 -21.601760 -23.824446
Spine 11.102911 -2.718186 15.929304
Head 11.438574 -20.087065 7.067319
LeftShoulder -20.079483 43.950946 13.693573
LeftArm 46.870857 -23.938285 -77.142801
LeftForeArm 2.313809 0.000000 9.620387
LeftHand 9.293991 -0.000000 -1.401912
LeftHandThumb1 -26.253704 0.000000 33.147579
RightShoulder -6.126035 -4.979602 -9.929221
RightArm 12.171333 -5.225716 69.343552
RightForeArm 13.954672 -0.000000 30.284948
RightHand 10.245011 -0.000000 8.550978
RightHandThumb1 -24.326973 -0.000000 -32.862282
LeftUpLeg 3.844957 7.611275 15.358860
LeftLeg 19.013548 -0.000000 -0.000000
LeftFoot -16.946763 26.605099 -7.159580
LeftToeBase -11.294081 -0.000000 0.000000
RightUpLeg -109.427610 -28.303358 15.910203
RightLeg 65.296495 -0.000000 -0.000000
RightFoot 41.819524 -21.567177 2.796743
RightToeBase 35.205205 -0.000000 -0.000000
2071
root 3.877433 33.070393 -3.965420 -2.629072 -21.747674 -23.554589
Spine 11.238857 -2.633002 15.601385
Head 11.348645 -20.000668 7.131879
LeftShoulder -20.198355 44.022019 13.555242
LeftArm 46.713003 -23.959952 -77.064004
LeftForeArm 2.427087 -0.000000 9.473256
LeftHand 9.132422 -0.000000 -1.703187
LeftHandThumb1 -26.253704 0.000000 33.147579
RightShoulder -6.172921 -5.072879 -9.990937
RightArm 12.007868 -5.397812 69.550795
RightForeArm 13.919850 -0.000000 30.267786
RightHand 10.192188 -0.000000 8.590128
RightHandThumb1 -24.326973 -0.000000 -32.862282
LeftUpLeg 3.853784 7.539950 15.054704
LeftLeg 19.211358 -0.000000 -0.000000
LeftFoot -17.087008 26.853838 -7.069745
LeftToeBase -11.251544 -0.000000 0.000000
RightUpLeg -109.606182 -28.030931 16.267717
RightLeg 64.672570 -0.000000 -0.000000
RightFoot 41.830236 -21.346343 2.784034
RightToeBase 35.356238 -0.000000 -0.000000
2072
root 3.882864 33.039549 -3.972513 -2.841676 -21.890885 -23.259748
Spine 11.415344 -2.588111 15.263368
Head 11.229983 -19.900474 7.146836
LeftShoulder -20.348300 44.042864 13.385432
LeftArm 46.463576 -23.893860 -76.838174
LeftForeArm 2.361709 -0.000000 9.289878
LeftHand 9.007026 -0.000000 -1.826098
LeftHandThumb1 -26.253704 0.000000 33.147579
RightShoulder -6.173051 -5.168257 -10.082666
RightArm 11.855754 -5.528980 69.758579
RightForeArm 13.925562 -0.000000 30.246812
RightHand 10.089938 -0.000000 8.747429
RightHandThumb1 -24.326973 -0.000000 -32.862282
LeftUpLeg 3.876399 7.470091 14.730167
LeftLeg 19.446604 -0.000000 -0.000000
LeftFoot -17.308258 27.058391 -7.110178
LeftToeBase -11.265214 -0.000000 0.000000
RightUpLeg -109.802753 -27.770438 16.678666
RightLeg 64.052633 -0.000000 -0.000000
RightFoot 41.834504 -21.269937 2.800370
RightToeBase 35.380284 -0.000000 -0.000000
2073
root 3.884469 33.009252 -3.980861 -3.091070 -22.068768 -23.012828
Spine 11.664695 -2.521847 14.967770
Head 11.090585 -19.782760 7.179706
LeftShoulder -20.466996 44.063818 13.238977
LeftArm 46.254949 -23.954603 -76.742610
LeftForeArm 2.370150 -0.000000 9.110425
LeftHand 8.868378 0.000000 -2.001751
LeftHandThumb1 -26.253704 0.000000 33.147579
RightShoulder -6.156499 -5.294372 -10.161779
RightArm 11.689623 -5.735996 69.922298
RightForeArm 14.130717 -0.000000 30.323829
RightHand 9.999444 -0.000000 8.710441
RightHandThumb1 -24.326973 -0.000000 -32.862282
LeftUpLeg 3.948561 7.516737 14.510878
LeftLeg 19.723279 -0.000000 -0.000000
LeftFoot -17.562672 27.088007 -7.252440
LeftToeBase -11.266741 -0.000000 0.000000
RightUpLeg -109.998116 -27.480993 17.232404
RightLeg 63.430139 -0.000000 -0.000000
RightFoot 42.005143 -21.337377 2.742811
RightToeBase 35.310340 -0.000000 -0.000000
2074
root 3.896760 32.972131 -3.976997 -3.439915 -22.228458 -22.565200
Spine 11.920462 -2.447541 14.491309
Head 10.955396 -19.720949 7.193554
LeftShoulder -20.645057 44.155181 13.032589
LeftArm 46.186699 -24.027418 -76.667645
LeftForeArm 2.331404 -0.000000 8.847282
LeftHand 8.828234 -0.000000 -2.166383
LeftHandThumb1 -26.253704 0.000000 33.147579
RightShoulder -6.162529 -5.409621 -10.251358
RightArm 11.538099 -5.855216 70.118710
RightForeArm 14.205709 -0.000000 30.309628
RightHand 9.930188 -0.000000 8.912857
RightHandThumb1 -24.326973 -0.000000 -32.862282
LeftUpLeg 4.074976 7.620244 14.096955
LeftLeg 19.954756 -0.000000 -0.000000
LeftFoot -17.790846 27.057198 -7.414955
LeftToeBase -11.245869 -0.000000 0.000000
RightUpLeg -110.205190 -27.240823 17.592011
RightLeg 62.885049 -0.000000 -0.000000
RightFoot 42.049076 -21.222951 2.792972
RightToeBase 35.216055 -0.000000 -0.000000
2075
root 3.900560 32.935410 -3.976648 -3.826803 -22.387169 -22.183055
Spine 12.260064 -2.398511 14.053541
Head 10.773539 -19.633347 7.235475
LeftShoulder -20.764194 44.145762 12.916789
LeftArm 45.996229 -24.172817 -76.643303
LeftForeArm 2.357064 0.000000 8.624142
LeftHand 8.846480 0.000000 -2.182811
LeftHandThumb1 -26.253704 0.000000 33.147579
RightShoulder -6.144524 -5.539817 -10.350325
RightArm 11.430872 -5.920010 70.351204
RightForeArm 14.250537 -0.000000 30.265326
RightHand 9.786559 -0.000000 9.037917
RightHandThumb1 -24.326973 -0.000000 -32.862282
LeftUpLeg 4.268103 7.711625 13.760829
LeftLeg 20.163848 -0.000000 -0.000000
LeftFoot -18.124102 27.084716 -7.650742
LeftToeBase -10.959253 -0.000000 0.000000
RightUpLeg -110.342760 -27.003342 17.956944
RightLeg 62.395665 -0.000000 -0.000000
RightFoot 42.061743 -21.067675 2.867134
RightToeBase 35.239471 -0.000000 -0.000000
2076
root 3.908610 32.898026 -3.975685 -4.238490 -22.527790 -21.732692
Spine 12.602215 -2.366612 13.549272
Head 10.582541 -19.526296 7.283730
LeftShoulder -20.950421 44.196237 12.715166
LeftArm 45.926949 -24.379671 -76.657656
LeftForeArm 2.306766 -0.000000 8.381689
LeftHand 8.757534 0.000000 -2.263376
LeftHandThumb1 -26.253704 0.000000 33.147579
RightShoulder -6.109801 -5.677633 -10.426869
RightArm 11.327630 -6.000304 70.532666
RightForeArm 14.340208 -0.000000 30.250112
RightHand 9.652938 -0.000000 9.292570
RightHandThumb1 -24.326973 -0.000000 -32.862282
LeftUpLeg 4.428291 7.779003 13.372711
LeftLeg 20.438900 -0.000000 -0.000000
LeftFoot -18.486537 26.979691 -8.072307
LeftToeBase -10.856515 -0.000000 0.000000
RightUpLeg -110.500857 -26.781960 18.288314
RightLeg 61.916603 -0.000000 -0.000000
RightFoot 42.071818 -20.890454 2.962970
RightToeBase 35.196980 -0.000000 -0.000000
2077
root 3.918811 32.860384 -3.975907 -4.659858 -22.643369 -21.265039
Spine 12.950512 -2.379123 13.017989
Head 10.384427 -19.398556 7.326313
LeftShoulder -21.134144 44.200946 12.539063
LeftArm 45.835363 -24.674416 -76.776349
LeftForeArm 2.328322 -0.000000 8.150660
LeftHand 8.766664 -0.000000 -2.319792
LeftHandThumb1 -26.253704 0.000000 33.147579
RightShoulder -6.082141 -5.866087 -10.493066
RightArm 11.359711 -6.146352 70.673388
RightForeArm 14.416213 -0.000000 30.151191
RightHand 9.583929 -0.000000 9.410223
RightHandThumb1 -24.326973 -0.000000 -32.862282
LeftUpLeg 4.565355 7.986374 13.021605
LeftLeg 20.762634 -0.000000 -0.000000
LeftFoot -18.824658 26.643225 -8.519679
LeftToeBase -10.837364 -0.000000 0.000000
RightUpLeg -110.648208 -26.579575 18.580500
RightLeg 61.445050 -0.000000 -0.000000
RightFoot 42.118583 -20.697719 3.075604
RightToeBase 35.161526 -0.000000 -0.000000
